<?xml version="1.0" encoding="UTF-8"?>
<!DOCTYPE svg PUBLIC "-//W3C//DTD SVG 1.1//EN" "http://www.w3.org/Graphics/SVG/1.1/DTD/svg11.dtd">
<svg xmlns="http://www.w3.org/2000/svg" version="1.1" width="817px" height="764px" style="shape-rendering:geometricPrecision; text-rendering:geometricPrecision; image-rendering:optimizeQuality; fill-rule:evenodd; clip-rule:evenodd" xmlns:xlink="http://www.w3.org/1999/xlink">
<g><path style="opacity:0.994" fill="#ff9550" d="M 140.5,-0.5 C 318.5,-0.5 496.5,-0.5 674.5,-0.5C 734.934,8.76538 778.1,41.0987 804,96.5C 810.717,113.363 814.884,130.696 816.5,148.5C 816.5,303.5 816.5,458.5 816.5,613.5C 809.677,676.806 777.677,722.306 720.5,750C 705.751,756.187 690.417,760.187 674.5,762C 496.5,762.667 318.5,762.667 140.5,762C 81.6628,753.514 39.1628,722.681 13,669.5C 6.29273,653.989 1.79273,637.989 -0.5,621.5C -0.5,461.167 -0.5,300.833 -0.5,140.5C 7.52917,86.3136 35.1958,45.4803 82.5,18C 100.893,8.47833 120.227,2.31166 140.5,-0.5 Z"/></g>
<g><path style="opacity:1" fill="#fe4d05" d="M 143.5,5.5 C 318.5,5.33333 493.5,5.5 668.5,6C 728.864,12.918 772.031,43.7514 798,98.5C 803.687,111.618 807.354,125.285 809,139.5C 809.667,299.5 809.667,459.5 809,619.5C 801.435,676.49 771.935,717.656 720.5,743C 704.465,749.842 687.798,754.175 670.5,756C 494.167,756.667 317.833,756.667 141.5,756C 72.1527,744.653 27.9861,705.153 9,637.5C 7.8544,630.524 6.8544,623.524 6,616.5C 5.33333,458.5 5.33333,300.5 6,142.5C 14.3007,83.5449 45.4673,41.7116 99.5,17C 113.804,11.2587 128.471,7.42536 143.5,5.5 Z"/></g>
<g><path style="opacity:1" fill="#f74b05" d="M 594.5,175.5 C 598.684,179.053 603.351,180.886 608.5,181C 609.833,181.667 609.833,182.333 608.5,183C 610.254,185.827 612.088,185.994 614,183.5C 614.617,184.449 614.451,185.282 613.5,186C 614.701,186.903 615.535,188.069 616,189.5C 616.667,188.167 617.333,188.167 618,189.5C 619.113,190.76 619.28,191.927 618.5,193C 619.833,193.667 621.167,194.333 622.5,195C 622.043,195.414 621.709,195.914 621.5,196.5C 623.937,197.881 625.27,199.714 625.5,202C 624.707,203.085 624.04,204.252 623.5,205.5C 624.833,207.167 626.167,208.833 627.5,210.5C 626.622,212.748 626.955,214.915 628.5,217C 626.575,220.711 626.241,224.544 627.5,228.5C 626.206,231.487 624.54,234.654 622.5,238C 622.833,238.333 623.167,238.667 623.5,239C 620.991,243.057 618.658,247.057 616.5,251C 616.4,253.355 615.233,255.522 613,257.5C 606.439,269.953 600.439,282.62 595,295.5C 593.242,296.469 592.742,297.636 593.5,299C 591.699,299.317 591.366,299.984 592.5,301C 590.699,301.317 590.366,301.984 591.5,303C 588.09,308.359 585.424,313.359 583.5,318C 583.833,318.333 584.167,318.667 584.5,319C 583.552,319.483 582.552,319.649 581.5,319.5C 581.747,322.505 580.747,325.005 578.5,327C 579.156,329.33 578.156,330.997 575.5,332C 575.833,332.333 576.167,332.667 576.5,333C 571.428,342.981 566.261,352.815 561,362.5C 560.727,364.101 560.227,365.601 559.5,367C 559.833,367.333 560.167,367.667 560.5,368C 559.5,368.333 558.5,368.667 557.5,369C 557.833,369.333 558.167,369.667 558.5,370C 557.019,372.762 555.353,375.429 553.5,378C 553.972,380.399 552.972,382.399 550.5,384C 550.833,384.333 551.167,384.667 551.5,385C 549.096,385.508 548.429,386.675 549.5,388.5C 547.275,392.681 544.775,396.681 542,400.5C 541.316,401.784 541.483,402.951 542.5,404C 541.838,405.332 540.672,406.498 539,407.5C 536.035,414.426 532.868,420.76 529.5,426.5C 530.813,428.518 530.147,429.685 527.5,430C 528.193,432.701 527.193,434.868 524.5,436.5C 524.709,437.086 525.043,437.586 525.5,438C 522.641,442.215 520.141,446.715 518,451.5C 517.667,451.167 517.333,450.833 517,450.5C 516.879,452.727 516.046,454.56 514.5,456C 514.833,456.333 515.167,456.667 515.5,457C 513.578,458.46 512.911,460.127 513.5,462C 512.833,463.333 511.833,464.333 510.5,465C 510.833,465.333 511.167,465.667 511.5,466C 507.906,471.649 504.573,477.483 501.5,483.5C 502.167,483.833 502.833,484.167 503.5,484.5C 501.163,485.517 499.496,487.184 498.5,489.5C 498.709,490.086 499.043,490.586 499.5,491C 497.321,491.442 496.655,492.442 497.5,494C 496.743,495.512 495.743,496.846 494.5,498C 494.833,498.333 495.167,498.667 495.5,499C 494.001,500.797 492.501,502.631 491,504.5C 490.316,505.784 490.483,506.951 491.5,508C 489.368,508.918 488.701,510.251 489.5,512C 488.5,512.333 487.5,512.667 486.5,513C 486.833,513.333 487.167,513.667 487.5,514C 485.392,516.307 484.059,518.64 483.5,521C 483.833,521.333 484.167,521.667 484.5,522C 483.333,523.167 482.167,524.333 481,525.5C 480.383,526.449 480.549,527.282 481.5,528C 480.5,528.833 479.5,529.667 478.5,530.5C 478.709,531.086 479.043,531.586 479.5,532C 477.981,533.218 476.814,534.718 476,536.5C 475.346,535.304 474.846,535.304 474.5,536.5C 474.833,537.167 475.167,537.833 475.5,538.5C 471.963,544.167 468.963,549.667 466.5,555C 466.833,555.333 467.167,555.667 467.5,556C 464.447,557.648 463.447,559.982 464.5,563C 463.584,563.374 462.75,563.874 462,564.5C 461.269,566.899 460.102,569.065 458.5,571C 458.833,571.333 459.167,571.667 459.5,572C 456.44,575.031 455.107,578.531 455.5,582.5C 454.817,585.461 453.984,585.795 453,583.5C 451.242,584.469 450.742,585.636 451.5,587C 448.633,590.398 446.8,594.231 446,598.5C 445.667,598.167 445.333,597.833 445,597.5C 441.908,602.09 439.575,607.09 438,612.5C 437.586,612.043 437.086,611.709 436.5,611.5C 434.849,614.645 432.682,617.311 430,619.5C 429.667,619.167 429.333,618.833 429,618.5C 428.276,620.959 426.943,621.959 425,621.5C 422.485,623.726 419.485,625.059 416,625.5C 415.228,625.355 414.561,625.022 414,624.5C 410.105,626.483 406.105,627.149 402,626.5C 400,625.167 398,623.833 396,622.5C 395.667,622.833 395.333,623.167 395,623.5C 394.667,622.5 394.333,621.5 394,620.5C 393.667,620.833 393.333,621.167 393,621.5C 389.353,618.687 385.853,615.687 382.5,612.5C 380.462,609.745 378.962,606.745 378,603.5C 377.086,604.654 376.253,604.487 375.5,603C 376.299,601.251 375.632,599.918 373.5,599C 374.345,597.442 373.679,596.442 371.5,596C 371.5,594.667 371.5,593.333 371.5,592C 369.833,590.333 368.167,588.667 366.5,587C 367.634,585.984 367.301,585.317 365.5,585C 365.833,584.667 366.167,584.333 366.5,584C 362.499,576.488 358.832,569.321 355.5,562.5C 351.965,554.548 347.965,547.381 343.5,541C 343.833,540.667 344.167,540.333 344.5,540C 339.798,533.851 336.298,527.018 334,519.5C 329.874,512.077 326.041,505.077 322.5,498.5C 322.709,497.914 323.043,497.414 323.5,497C 320.061,495.577 318.728,493.244 319.5,490C 317.828,486.584 315.495,483.251 312.5,480C 313.061,478.434 312.394,477.101 310.5,476C 310.833,475.667 311.167,475.333 311.5,475C 307.641,468.409 303.975,461.742 300.5,455C 300.833,454.667 301.167,454.333 301.5,454C 300.167,452.667 298.833,451.333 297.5,450C 298.167,449.667 298.833,449.333 299.5,449C 296.42,446.132 294.253,442.632 293,438.5C 292.25,437.874 291.416,437.374 290.5,437C 290.888,435.192 290.888,433.525 290.5,432C 288.608,430.232 286.941,428.232 285.5,426C 284.576,424.85 284.576,423.85 285.5,423C 282.938,420.711 281.271,417.877 280.5,414.5C 278.238,413.655 277.571,412.322 278.5,410.5C 278.032,408.866 277.032,407.7 275.5,407C 275.833,406.667 276.167,406.333 276.5,406C 275.328,405.581 274.328,404.915 273.5,404C 274.517,402.951 274.684,401.784 274,400.5C 269.708,394.989 266.541,388.822 264.5,382C 263.692,381.692 263.025,381.192 262.5,380.5C 255.484,365.134 248.151,350.467 240.5,336.5C 240.709,335.914 241.043,335.414 241.5,335C 240,334.167 238.833,333 238,331.5C 234.927,325.265 232.094,318.931 229.5,312.5C 228.624,311.749 227.624,311.249 226.5,311C 227.641,308.298 226.641,306.631 223.5,306C 224.308,305.692 224.975,305.192 225.5,304.5C 225.154,303.304 224.654,303.304 224,304.5C 224.054,301.809 222.887,299.976 220.5,299C 221.833,297.16 221.666,296.66 220,297.5C 219.542,293.862 218.042,290.362 215.5,287C 215.833,286.667 216.167,286.333 216.5,286C 215.107,284.829 214.273,283.329 214,281.5C 213.667,281.833 213.333,282.167 213,282.5C 212.277,279.93 211.11,277.597 209.5,275.5C 209.709,274.914 210.043,274.414 210.5,274C 208.448,273.07 206.948,271.57 206,269.5C 204.781,264.847 202.615,260.68 199.5,257C 199.833,256.667 200.167,256.333 200.5,256C 199.167,254.667 197.833,253.333 196.5,252C 196.833,251.667 197.167,251.333 197.5,251C 196.283,249.352 195.45,247.519 195,245.5C 192.891,244.965 192.391,243.965 193.5,242.5C 192.205,238.458 190.538,234.625 188.5,231C 188.833,230 189.167,229 189.5,228C 188.833,227.667 188.167,227.333 187.5,227C 188.038,222.064 188.038,217.231 187.5,212.5C 187.977,211.522 188.643,210.689 189.5,210C 189.499,208.601 189.165,207.101 188.5,205.5C 190.318,201.864 192.151,198.198 194,194.5C 197.462,194.017 197.962,192.85 195.5,191C 197.439,186.542 200.772,184.375 205.5,184.5C 205.44,180.673 206.607,180.006 209,182.5C 210.409,180.116 212.076,178.783 214,178.5C 215.388,179.554 216.888,179.72 218.5,179C 218.167,178.667 217.833,178.333 217.5,178C 218.416,177.626 219.25,177.126 220,176.5C 220.689,177.357 221.522,178.023 222.5,178.5C 224.042,177.253 225.542,177.253 227,178.5C 227.308,177.692 227.808,177.025 228.5,176.5C 230.622,176.623 232.789,176.623 235,176.5C 237,177.167 238.333,178.5 239,180.5C 240.545,180.634 242.212,180.3 244,179.5C 245.888,180.777 247.888,181.777 250,182.5C 251.797,179.904 253.131,180.237 254,183.5C 254.333,183.167 254.667,182.833 255,182.5C 257.026,183.858 259.193,184.691 261.5,185C 262.833,185.667 262.833,186.333 261.5,187C 263.271,189.113 264.771,188.947 266,186.5C 267.011,187.337 268.178,187.67 269.5,187.5C 269.651,190.718 270.484,191.051 272,188.5C 273.167,189.667 274.333,190.833 275.5,192C 276.449,192.617 277.282,192.451 278,191.5C 280.944,195.136 283.61,195.469 286,192.5C 288.056,193.583 289.389,195.25 290,197.5C 290.691,195.109 291.691,195.109 293,197.5C 293.333,197.167 293.667,196.833 294,196.5C 295,197.833 296,199.167 297,200.5C 297.308,199.692 297.808,199.025 298.5,198.5C 299.696,198.846 299.696,199.346 298.5,200C 302.941,200.558 306.941,202.058 310.5,204.5C 313.498,203.412 315.664,204.412 317,207.5C 317.915,206.672 318.581,205.672 319,204.5C 319.724,206.959 321.057,207.959 323,207.5C 325.179,208.116 327.012,209.283 328.5,211C 329.899,211.595 331.232,211.428 332.5,210.5C 334.25,212.461 336.417,213.794 339,214.5C 341.075,211.972 341.908,212.139 341.5,215C 342.993,216.368 344.493,216.535 346,215.5C 346.442,217.679 347.442,218.345 349,217.5C 349.928,219.335 351.094,219.668 352.5,218.5C 354.467,219.953 356.633,220.953 359,221.5C 360.566,220.939 361.899,221.606 363,223.5C 363.974,221.122 364.641,221.456 365,224.5C 366.85,222.038 368.017,222.538 368.5,226C 371.194,227.488 373.528,227.321 375.5,225.5C 376.665,226.491 377.832,227.491 379,228.5C 381.776,227.832 384.109,228.832 386,231.5C 388.842,230.5 391.842,231.167 395,233.5C 397.416,232.965 399.916,232.632 402.5,232.5C 404.976,233.229 407.476,233.896 410,234.5C 410.945,234.095 411.612,233.428 412,232.5C 413.796,233.767 415.629,233.767 417.5,232.5C 417.833,233.167 418.167,233.833 418.5,234.5C 421.223,232.602 424.057,230.935 427,229.5C 427.333,230.167 427.667,230.833 428,231.5C 429.113,230.289 430.28,230.289 431.5,231.5C 432.506,231.062 432.506,230.396 431.5,229.5C 433.766,228.686 436.1,228.186 438.5,228C 439.126,227.25 439.626,226.416 440,225.5C 441,226.833 442,226.833 443,225.5C 443.308,226.308 443.808,226.975 444.5,227.5C 445.439,225.947 446.606,224.613 448,223.5C 460.878,219.374 473.545,215.041 486,210.5C 487.768,206.675 489.768,206.675 492,210.5C 491.806,205.734 493.806,204.734 498,207.5C 499.333,206.167 500.667,204.833 502,203.5C 504,202.167 506,202.167 508,203.5C 508.667,200.833 509.333,200.833 510,203.5C 511.574,202.016 512.907,200.349 514,198.5C 514.667,201.167 515.333,201.167 516,198.5C 516.333,199.5 516.667,200.5 517,201.5C 518.316,200.026 519.316,198.359 520,196.5C 521.779,197.479 523.445,197.146 525,195.5C 527.234,196.705 528.901,196.039 530,193.5C 530.333,193.833 530.667,194.167 531,194.5C 534.222,193.83 537.389,192.83 540.5,191.5C 540.351,190.448 540.517,189.448 541,188.5C 542,188.833 543,189.167 544,189.5C 546.409,186.225 549.076,185.558 552,187.5C 556.615,184.79 560.781,182.457 564.5,180.5C 566.818,180.967 568.985,180.967 571,180.5C 571.667,177.833 572.333,177.833 573,180.5C 577.063,176.573 581.563,175.906 586.5,178.5C 587.315,176.724 588.482,176.057 590,176.5C 592.24,179.293 593.74,178.96 594.5,175.5 Z"/></g>
<g><path style="opacity:1" fill="#f34c0a" d="M 589.5,185.5 C 537.587,204.197 485.587,223.03 433.5,242C 424.801,245.506 415.801,247.672 406.5,248.5C 400.374,248.071 394.374,246.905 388.5,245C 334.069,225.103 279.736,205.27 225.5,185.5C 228.487,185.348 231.154,185.015 233.5,184.5C 234.969,186.375 236.802,186.375 239,184.5C 239.918,186.632 241.251,187.299 243,186.5C 243.84,189.464 244.84,189.797 246,187.5C 248.764,192.126 251.764,192.459 255,188.5C 255.317,190.301 255.984,190.634 257,189.5C 258.779,191.017 258.279,191.851 255.5,192C 254.304,192.654 254.304,193.154 255.5,193.5C 259.604,191.341 263.271,191.507 266.5,194C 265.549,194.718 265.383,195.551 266,196.5C 267,195.5 268,194.5 269,193.5C 271.765,195.787 274.765,197.787 278,199.5C 279.998,198.729 281.665,199.395 283,201.5C 283.718,200.549 284.551,200.383 285.5,201C 284.304,201.654 284.304,202.154 285.5,202.5C 286.451,201.674 287.451,201.508 288.5,202C 289.112,203.303 289.446,204.47 289.5,205.5C 291.12,202.942 292.62,202.942 294,205.5C 294.718,204.549 295.551,204.383 296.5,205C 297.56,206.298 298.726,207.465 300,208.5C 301.057,207.373 302.223,206.873 303.5,207C 303.596,208.373 303.43,209.873 303,211.5C 304.044,210.377 304.71,209.044 305,207.5C 306.346,210.249 307.68,210.583 309,208.5C 310.674,212.153 313.34,213.487 317,212.5C 318.204,213.471 318.704,214.471 318.5,215.5C 319.293,215.069 320.127,214.735 321,214.5C 324.853,215.706 328.686,216.873 332.5,218C 333.191,219.067 333.691,220.234 334,221.5C 335.117,221.335 336.284,221.002 337.5,220.5C 338.719,221.263 339.719,222.263 340.5,223.5C 342.148,224.325 344.648,224.325 348,223.5C 348.833,224.5 349.667,225.5 350.5,226.5C 351.451,225.674 352.451,225.508 353.5,226C 352.346,226.914 352.513,227.747 354,228.5C 355.518,228.943 356.685,228.276 357.5,226.5C 358.519,227.687 359.686,228.687 361,229.5C 361.333,229.167 361.667,228.833 362,228.5C 363,229.833 364,231.167 365,232.5C 366.558,231.655 367.558,232.321 368,234.5C 369.358,231.635 371.191,231.135 373.5,233C 372.552,233.483 371.552,233.649 370.5,233.5C 370.351,234.552 370.517,235.552 371,236.5C 372.333,235.167 373.667,235.167 375,236.5C 375.667,235.167 376.667,234.167 378,233.5C 378.257,235.295 378.923,237.295 380,239.5C 380.483,238.552 380.649,237.552 380.5,236.5C 382.833,237.833 385.167,237.833 387.5,236.5C 387.626,239.558 389.126,239.891 392,237.5C 393.333,241.5 394.667,241.5 396,237.5C 399.296,238.685 402.296,240.352 405,242.5C 406.762,242.056 406.595,241.556 404.5,241C 406.709,239.309 408.542,239.476 410,241.5C 411.333,240.167 412.667,240.167 414,241.5C 415.673,239.083 417.506,239.083 419.5,241.5C 421.539,240.723 422.205,239.557 421.5,238C 423.135,237.46 424.468,237.96 425.5,239.5C 425.109,238.109 425.942,237.109 428,236.5C 428.333,237.167 428.667,237.833 429,238.5C 429.284,236.114 430.284,235.448 432,236.5C 433.333,235.833 434.667,235.167 436,234.5C 436.333,235.167 436.667,235.833 437,236.5C 437.333,235.167 437.667,233.833 438,232.5C 441.291,235.286 443.791,234.62 445.5,230.5C 446.086,230.709 446.586,231.043 447,231.5C 449.427,229.254 452.094,228.588 455,229.5C 457.398,229.042 459.064,227.708 460,225.5C 460.333,225.833 460.667,226.167 461,226.5C 462.825,225.897 464.659,225.23 466.5,224.5C 465.371,222.471 465.871,222.137 468,223.5C 470.333,222.5 472.667,221.5 475,220.5C 475.414,220.957 475.914,221.291 476.5,221.5C 480.487,219.128 484.654,217.128 489,215.5C 489.915,216.328 490.581,217.328 491,218.5C 492.025,215.611 493.359,213.611 495,212.5C 496.229,214.947 497.729,215.113 499.5,213C 499.167,212.667 498.833,212.333 498.5,212C 499.766,211.691 500.933,211.191 502,210.5C 503.803,214.512 504.803,214.178 505,209.5C 508.346,211.06 511.346,210.06 514,206.5C 514.333,206.833 514.667,207.167 515,207.5C 516.067,206.809 517.234,206.309 518.5,206C 517.396,204.869 517.729,204.035 519.5,203.5C 520.167,203.833 520.833,204.167 521.5,204.5C 522.96,202.578 524.627,201.911 526.5,202.5C 527.848,204.461 529.181,204.628 530.5,203C 529.833,202.667 529.167,202.333 528.5,202C 530.477,200.459 532.477,199.959 534.5,200.5C 536.776,199.787 539.109,199.287 541.5,199C 540.274,196.399 540.94,195.565 543.5,196.5C 544.541,194.009 545.374,194.009 546,196.5C 548.739,193.695 551.906,192.528 555.5,193C 559.624,188.426 564.624,186.426 570.5,187C 572.058,183.887 573.891,183.72 576,186.5C 579,185.5 582,184.5 585,183.5C 586.049,185.107 587.549,185.773 589.5,185.5 Z"/></g>
<g><path style="opacity:1" fill="#d2c0b8" d="M 225.5,185.5 C 279.736,205.27 334.069,225.103 388.5,245C 394.374,246.905 400.374,248.071 406.5,248.5C 415.801,247.672 424.801,245.506 433.5,242C 485.587,223.03 537.587,204.197 589.5,185.5C 598.916,184.41 606.583,187.41 612.5,194.5C 607.465,192.289 602.131,190.956 596.5,190.5C 591.04,191.092 585.707,192.259 580.5,194C 527.701,214.155 474.534,233.322 421,251.5C 413.126,252.939 405.293,252.772 397.5,251C 388.5,248 379.5,245 370.5,242C 324.696,224.764 278.696,208.097 232.5,192C 218.92,189.36 207.587,193.193 198.5,203.5C 198.629,201.784 198.962,200.117 199.5,198.5C 205.401,188.883 214.067,184.55 225.5,185.5 Z"/></g>
<g><path style="opacity:1" fill="#d6c9c4" d="M 612.5,194.5 C 615.496,197.497 617.163,201.164 617.5,205.5C 609.631,196.268 599.631,193.101 587.5,196C 585.564,196.813 583.564,197.313 581.5,197.5C 578.513,197.998 575.513,198.498 572.5,199C 521.935,218.522 470.935,236.855 419.5,254C 411.768,254.856 404.102,254.523 396.5,253C 388.5,250.333 380.5,247.667 372.5,245C 325.549,227.575 278.549,210.575 231.5,194C 219.285,191.738 209.118,195.238 201,204.5C 199.092,207.206 198.259,210.206 198.5,213.5C 198.167,213.5 197.833,213.5 197.5,213.5C 197.187,209.958 197.521,206.625 198.5,203.5C 207.587,193.193 218.92,189.36 232.5,192C 278.696,208.097 324.696,224.764 370.5,242C 379.5,245 388.5,248 397.5,251C 405.293,252.772 413.126,252.939 421,251.5C 474.534,233.322 527.701,214.155 580.5,194C 585.707,192.259 591.04,191.092 596.5,190.5C 602.131,190.956 607.465,192.289 612.5,194.5 Z"/></g>
<g><path style="opacity:1" fill="#f8f7f6" d="M 609.5,209.5 C 603.734,205.761 597.401,204.594 590.5,206C 537.308,225.73 483.975,245.064 430.5,264C 418.257,268.122 405.924,268.455 393.5,265C 339.779,245.87 286.113,226.537 232.5,207C 217.917,202.44 209.917,207.606 208.5,222.5C 208.601,226.97 209.434,231.304 211,235.5C 273.253,357.004 334.753,479.004 395.5,601.5C 391.395,598.73 388.395,595.063 386.5,590.5C 385.926,586.675 384.759,583.009 383,579.5C 360.55,536.603 338.55,493.27 317,449.5C 316.329,448.748 315.496,448.414 314.5,448.5C 312.659,446.151 311.326,443.485 310.5,440.5C 310.477,438.073 309.977,435.74 309,433.5C 275.996,367.49 242.496,301.823 208.5,236.5C 206.219,229.121 205.719,221.788 207,214.5C 211.883,204.646 219.716,201.146 230.5,204C 280.407,221.413 330.074,239.413 379.5,258C 394.413,264.657 409.746,266.323 425.5,263C 480.275,243.262 534.942,223.596 589.5,204C 595.724,202.939 601.724,203.606 607.5,206C 608.823,206.816 609.489,207.983 609.5,209.5 Z"/></g>
<g><path style="opacity:1" fill="#fefefe" d="M 609.5,209.5 C 610.184,211.449 611.351,213.115 613,214.5C 613.497,217.146 613.664,219.813 613.5,222.5C 604.106,242.955 594.44,263.288 584.5,283.5C 553.323,345.188 522.656,407.188 492.5,469.5C 492.5,469.833 492.5,470.167 492.5,470.5C 471.286,513.261 449.786,555.928 428,598.5C 421.223,605.24 413.056,607.74 403.5,606C 400.316,605.246 397.649,603.746 395.5,601.5C 334.753,479.004 273.253,357.004 211,235.5C 209.434,231.304 208.601,226.97 208.5,222.5C 209.917,207.606 217.917,202.44 232.5,207C 286.113,226.537 339.779,245.87 393.5,265C 405.924,268.455 418.257,268.122 430.5,264C 483.975,245.064 537.308,225.73 590.5,206C 597.401,204.594 603.734,205.761 609.5,209.5 Z"/></g>
<g><path style="opacity:1" fill="#e9e3e0" d="M 617.5,205.5 C 617.5,208.5 617.5,211.5 617.5,214.5C 616.833,215.5 616.167,216.5 615.5,217.5C 616.731,211.159 614.398,206.326 608.5,203C 602.39,200.359 596.057,199.859 589.5,201.5C 567.25,210.06 544.916,218.56 522.5,227C 516.09,229.474 509.424,231.141 502.5,232C 475.242,242.734 447.576,252.401 419.5,261C 409.922,261.829 400.422,261.329 391,259.5C 371.79,251.65 352.29,244.483 332.5,238C 298.824,224.749 264.824,212.415 230.5,201C 216.222,197.612 207.056,202.779 203,216.5C 202.466,220.859 202.632,225.192 203.5,229.5C 202.326,228.486 201.66,227.153 201.5,225.5C 199.425,216.727 201.758,209.393 208.5,203.5C 215.201,198.076 222.867,196.242 231.5,198C 238.92,201.14 246.586,203.473 254.5,205C 257.408,206.307 260.241,207.807 263,209.5C 280.262,214.25 296.762,220.75 312.5,229C 324.586,232.287 336.586,235.953 348.5,240C 366.077,249.304 384.743,255.637 404.5,259C 409.5,259.667 414.5,259.667 419.5,259C 439.638,251.732 459.971,245.065 480.5,239C 484.197,238.262 486.53,236.095 487.5,232.5C 494.787,229.202 502.453,227.035 510.5,226C 522.147,219.673 534.481,215.339 547.5,213C 558.913,207.922 570.246,202.755 581.5,197.5C 583.564,197.313 585.564,196.813 587.5,196C 599.631,193.101 609.631,196.268 617.5,205.5 Z"/></g>
<g><path style="opacity:1" fill="#ded5d1" d="M 581.5,197.5 C 570.246,202.755 558.913,207.922 547.5,213C 534.481,215.339 522.147,219.673 510.5,226C 502.453,227.035 494.787,229.202 487.5,232.5C 486.53,236.095 484.197,238.262 480.5,239C 459.971,245.065 439.638,251.732 419.5,259C 414.5,259.667 409.5,259.667 404.5,259C 384.743,255.637 366.077,249.304 348.5,240C 336.586,235.953 324.586,232.287 312.5,229C 296.762,220.75 280.262,214.25 263,209.5C 260.241,207.807 257.408,206.307 254.5,205C 246.586,203.473 238.92,201.14 231.5,198C 222.867,196.242 215.201,198.076 208.5,203.5C 201.758,209.393 199.425,216.727 201.5,225.5C 199.584,221.837 198.584,217.837 198.5,213.5C 198.259,210.206 199.092,207.206 201,204.5C 209.118,195.238 219.285,191.738 231.5,194C 278.549,210.575 325.549,227.575 372.5,245C 380.5,247.667 388.5,250.333 396.5,253C 404.102,254.523 411.768,254.856 419.5,254C 470.935,236.855 521.935,218.522 572.5,199C 575.513,198.498 578.513,197.998 581.5,197.5 Z"/></g>
<g><path style="opacity:1" fill="#f2edeb" d="M 615.5,217.5 C 615.598,219.553 614.931,221.22 613.5,222.5C 613.664,219.813 613.497,217.146 613,214.5C 611.351,213.115 610.184,211.449 609.5,209.5C 609.489,207.983 608.823,206.816 607.5,206C 601.724,203.606 595.724,202.939 589.5,204C 534.942,223.596 480.275,243.262 425.5,263C 409.746,266.323 394.413,264.657 379.5,258C 330.074,239.413 280.407,221.413 230.5,204C 219.716,201.146 211.883,204.646 207,214.5C 205.719,221.788 206.219,229.121 208.5,236.5C 242.496,301.823 275.996,367.49 309,433.5C 309.977,435.74 310.477,438.073 310.5,440.5C 293.245,407.657 276.245,374.657 259.5,341.5C 259.5,341.167 259.5,340.833 259.5,340.5C 240.801,303.768 222.134,267.101 203.5,230.5C 203.5,230.167 203.5,229.833 203.5,229.5C 202.632,225.192 202.466,220.859 203,216.5C 207.056,202.779 216.222,197.612 230.5,201C 264.824,212.415 298.824,224.749 332.5,238C 352.29,244.483 371.79,251.65 391,259.5C 400.422,261.329 409.922,261.829 419.5,261C 447.576,252.401 475.242,242.734 502.5,232C 509.424,231.141 516.09,229.474 522.5,227C 544.916,218.56 567.25,210.06 589.5,201.5C 596.057,199.859 602.39,200.359 608.5,203C 614.398,206.326 616.731,211.159 615.5,217.5 Z"/></g>
<g><path style="opacity:1" fill="#c4410d" d="M 203.5,230.5 C 222.134,267.101 240.801,303.768 259.5,340.5C 258.325,340.719 257.325,340.386 256.5,339.5C 238.744,304.989 221.244,270.322 204,235.5C 203.506,233.866 203.34,232.199 203.5,230.5 Z"/></g>
<g><path style="opacity:1" fill="#c64514" d="M 584.5,283.5 C 584.66,285.199 584.494,286.866 584,288.5C 554.484,348.045 524.984,408.045 495.5,468.5C 494.675,469.386 493.675,469.719 492.5,469.5C 522.656,407.188 553.323,345.188 584.5,283.5 Z"/></g>
<g><path style="opacity:1" fill="#d13f04" d="M 197.5,213.5 C 197.833,213.5 198.167,213.5 198.5,213.5C 198.584,217.837 199.584,221.837 201.5,225.5C 201.66,227.153 202.326,228.486 203.5,229.5C 203.5,229.833 203.5,230.167 203.5,230.5C 203.34,232.199 203.506,233.866 204,235.5C 221.244,270.322 238.744,304.989 256.5,339.5C 257.325,340.386 258.325,340.719 259.5,340.5C 259.5,340.833 259.5,341.167 259.5,341.5C 259.34,343.199 259.506,344.866 260,346.5C 304.089,433.678 348.422,520.678 393,607.5C 401.451,615.996 410.951,617.496 421.5,612C 424.667,609.167 427.833,606.333 431,603.5C 433.087,597.319 435.753,591.319 439,585.5C 440.147,583.181 441.981,581.848 444.5,581.5C 440.488,594.724 433.155,605.557 422.5,614C 410.596,618.945 400.262,616.945 391.5,608C 390.167,607.333 388.833,606.667 387.5,606C 374.083,578.635 360.583,551.135 347,523.5C 344.167,517.83 340.834,512.497 337,507.5C 333.337,497.169 328.837,487.169 323.5,477.5C 318.046,469.591 313.38,461.258 309.5,452.5C 308.643,451.575 307.643,450.908 306.5,450.5C 300.755,435.667 294.422,421 287.5,406.5C 285.614,405.07 283.947,403.403 282.5,401.5C 264.43,366.03 246.263,330.363 228,294.5C 226.52,288.085 223.52,282.419 219,277.5C 217.709,271.971 215.375,266.971 212,262.5C 211.156,258.789 210.156,255.123 209,251.5C 199.917,240.517 196.083,227.85 197.5,213.5 Z"/></g>
<g><path style="opacity:1" fill="#eb4705" d="M 199.5,198.5 C 198.962,200.117 198.629,201.784 198.5,203.5C 197.521,206.625 197.187,209.958 197.5,213.5C 196.083,227.85 199.917,240.517 209,251.5C 210.156,255.123 211.156,258.789 212,262.5C 215.375,266.971 217.709,271.971 219,277.5C 223.52,282.419 226.52,288.085 228,294.5C 246.263,330.363 264.43,366.03 282.5,401.5C 283.947,403.403 285.614,405.07 287.5,406.5C 294.422,421 300.755,435.667 306.5,450.5C 332.06,503.956 358.894,556.623 387,608.5C 392.443,615.89 399.776,619.89 409,620.5C 411.913,619.514 414.413,619.847 416.5,621.5C 422.347,619.6 427.347,616.6 431.5,612.5C 430.457,615.056 428.79,617.223 426.5,619C 411.008,626.822 397.174,624.322 385,611.5C 368.869,583.585 353.869,554.585 340,524.5C 333.674,512.495 327.507,500.829 321.5,489.5C 291.901,431.174 262.734,373.508 234,316.5C 233.28,314.888 233.446,313.388 234.5,312C 232.392,307.894 229.558,304.394 226,301.5C 216.396,281.577 206.729,262.577 197,244.5C 194.639,238.524 192.472,232.857 190.5,227.5C 191.479,223.764 191.479,220.264 190.5,217C 192.049,213.311 193.215,209.477 194,205.5C 195.371,202.681 197.204,200.347 199.5,198.5 Z"/></g>
<g><path style="opacity:1" fill="#d04005" d="M 617.5,214.5 C 617.209,219.912 616.376,225.245 615,230.5C 608.889,243.721 602.555,256.721 596,269.5C 595.012,272.424 594.346,275.424 594,278.5C 591.475,282.238 588.975,285.904 586.5,289.5C 584.081,296.586 581.415,303.586 578.5,310.5C 576.727,313.06 574.727,315.393 572.5,317.5C 550.141,363.39 527.641,409.057 505,454.5C 503.985,459.842 501.652,464.509 498,468.5C 495.616,474.319 493.616,480.319 492,486.5C 476.43,518.427 460.597,550.094 444.5,581.5C 445.094,575.972 447.094,570.972 450.5,566.5C 452.063,561.183 453.563,555.849 455,550.5C 467.046,525.408 479.379,500.408 492,475.5C 492.494,473.866 492.66,472.199 492.5,470.5C 492.5,470.167 492.5,469.833 492.5,469.5C 493.675,469.719 494.675,469.386 495.5,468.5C 524.984,408.045 554.484,348.045 584,288.5C 584.494,286.866 584.66,285.199 584.5,283.5C 594.44,263.288 604.106,242.955 613.5,222.5C 614.931,221.22 615.598,219.553 615.5,217.5C 616.167,216.5 616.833,215.5 617.5,214.5 Z"/></g>
<g><path style="opacity:1" fill="#f1e4df" d="M 314.5,448.5 C 315.496,448.414 316.329,448.748 317,449.5C 338.55,493.27 360.55,536.603 383,579.5C 384.759,583.009 385.926,586.675 386.5,590.5C 361.993,543.486 337.993,496.153 314.5,448.5 Z"/></g>
<g><path style="opacity:1" fill="#e44505" d="M 617.5,205.5 C 619.41,206.975 620.576,208.975 621,211.5C 622.467,215.831 622.967,220.164 622.5,224.5C 621.926,226.059 621.26,227.559 620.5,229C 620.833,229.333 621.167,229.667 621.5,230C 615.673,240.769 611.006,251.602 607.5,262.5C 594.049,289.347 580.883,316.347 568,343.5C 567,345.833 565.333,347.5 563,348.5C 557.424,359.151 552.257,369.985 547.5,381C 539.422,393.166 532.755,405.833 527.5,419C 520.632,431.233 514.132,443.733 508,456.5C 506.374,462.297 504.374,467.963 502,473.5C 494.475,487.745 487.142,502.078 480,516.5C 478.245,521.276 476.412,525.942 474.5,530.5C 473.325,530.281 472.325,530.614 471.5,531.5C 466.515,545.143 460.682,558.477 454,571.5C 447.024,585.451 439.524,599.118 431.5,612.5C 427.347,616.6 422.347,619.6 416.5,621.5C 414.413,619.847 411.913,619.514 409,620.5C 399.776,619.89 392.443,615.89 387,608.5C 358.894,556.623 332.06,503.956 306.5,450.5C 307.643,450.908 308.643,451.575 309.5,452.5C 313.38,461.258 318.046,469.591 323.5,477.5C 328.837,487.169 333.337,497.169 337,507.5C 340.834,512.497 344.167,517.83 347,523.5C 360.583,551.135 374.083,578.635 387.5,606C 388.833,606.667 390.167,607.333 391.5,608C 400.262,616.945 410.596,618.945 422.5,614C 433.155,605.557 440.488,594.724 444.5,581.5C 460.597,550.094 476.43,518.427 492,486.5C 493.616,480.319 495.616,474.319 498,468.5C 501.652,464.509 503.985,459.842 505,454.5C 527.641,409.057 550.141,363.39 572.5,317.5C 574.727,315.393 576.727,313.06 578.5,310.5C 581.415,303.586 584.081,296.586 586.5,289.5C 588.975,285.904 591.475,282.238 594,278.5C 594.346,275.424 595.012,272.424 596,269.5C 602.555,256.721 608.889,243.721 615,230.5C 616.376,225.245 617.209,219.912 617.5,214.5C 617.5,211.5 617.5,208.5 617.5,205.5 Z"/></g>
<g><path style="opacity:1" fill="#c6410d" d="M 259.5,341.5 C 276.245,374.657 293.245,407.657 310.5,440.5C 311.326,443.485 312.659,446.151 314.5,448.5C 337.993,496.153 361.993,543.486 386.5,590.5C 388.395,595.063 391.395,598.73 395.5,601.5C 397.649,603.746 400.316,605.246 403.5,606C 413.056,607.74 421.223,605.24 428,598.5C 449.786,555.928 471.286,513.261 492.5,470.5C 492.66,472.199 492.494,473.866 492,475.5C 479.379,500.408 467.046,525.408 455,550.5C 453.563,555.849 452.063,561.183 450.5,566.5C 447.094,570.972 445.094,575.972 444.5,581.5C 441.981,581.848 440.147,583.181 439,585.5C 435.753,591.319 433.087,597.319 431,603.5C 427.833,606.333 424.667,609.167 421.5,612C 410.951,617.496 401.451,615.996 393,607.5C 348.422,520.678 304.089,433.678 260,346.5C 259.506,344.866 259.34,343.199 259.5,341.5 Z"/></g>
</svg>
